<?xml version="1.0" standalone="no"?><!DOCTYPE svg PUBLIC "-//W3C//DTD SVG 1.1//EN" "http://www.w3.org/Graphics/SVG/1.1/DTD/svg11.dtd"><svg t="1701515467690" class="icon" viewBox="0 0 1024 1024" version="1.1" xmlns="http://www.w3.org/2000/svg" p-id="11097" xmlns:xlink="http://www.w3.org/1999/xlink" width="200" height="200"><path d="M841.714286 530.857143q4-67.428571-18.857143-129.428572t-64.571429-108-101.142857-74.857142T530.857143 185.714286q-66.285714-4-128.857143 18.285714t-109.714286 63.142857-77.142857 100T181.142857 493.142857q-4 67.428571 18.857143 129.428572t64.571429 108 101.428571 74.857142T492.571429 838.285714q88.571429 5.142857 167.428571-33.714285t128-111.714286 53.714286-162zM1024 0l-199.428571 198.857143q68.571429 66.857143 103.142857 155.428571t28.857143 183.428572q-6.285714 104.571429-58.285715 193.714285t-137.714285 146T570.857143 948.571429L0 1024l198.285714-198.285714q-68.571429-66.285714-103.142857-155.142857T66.285714 486.857143q6.285714-105.142857 58.285715-194.285714t138-146T452.571429 75.428571q95.428571-12.571429 285.714285-37.714285t285.714286-37.714286z" p-id="11098"></path></svg>